<?xml version="1.0"?>
<svg id="a" data-name="Layer 2" xmlns="http://www.w3.org/2000/svg" width="1639.286" height="388.003" xmlns:xlink="http://www.w3.org/1999/xlink" viewBox="0 0 1639.286 388.003">
  <defs>
    <radialGradient id="c" cx="132.672" cy="49.866" fx="132.672" fy="49.866" r="208.142" gradientUnits="userSpaceOnUse">
      <stop offset="0" stop-color="#ffc815"></stop>
      <stop offset=".195" stop-color="#fec314"></stop>
      <stop offset=".403" stop-color="#feb611"></stop>
      <stop offset=".618" stop-color="#fea10d"></stop>
      <stop offset=".835" stop-color="#fd8307"></stop>
      <stop offset="1" stop-color="#fd6802"></stop>
    </radialGradient>
  </defs>
  <g id="b" data-name="Layer 1">
    <g>
      <path d="M210.113,247.081c-23.787,23.788-53.767,37.57-84.749,41.431l-.002-288.512c30.982,3.86,60.964,17.644,84.752,41.431,56.789,56.789,56.788,148.861,0,205.65ZM71.191,331.473L71.189,0,0,56.53l.003,331.473,71.189-56.53Z" fill="url(#c)"></path>
      <g>
        <g>
          <path d="M442.291,296.281v-.107c0-10.515,7.925-19.129,19.288-19.129,6.974,0,11.148,2.327,14.582,5.709l-5.176,5.972c-2.856-2.59-5.761-4.177-9.461-4.177-6.234,0-10.726,5.18-10.726,11.522v.104c0,6.342,4.388,11.625,10.726,11.625,4.229,0,6.819-1.691,9.723-4.333l5.18,5.232c-3.807,4.07-8.033,6.604-15.166,6.604-10.885,0-18.97-8.403-18.97-19.021Z" fill="#3c3c3c"></path>
          <path d="M493.509,277.681h16.909c4.703,0,8.347,1.321,10.778,3.752,2.061,2.061,3.171,4.965,3.171,8.454v.104c0,5.972-3.223,9.723-7.925,11.466l9.035,13.213h-9.513l-7.925-11.836h-6.394v11.836h-8.136v-36.988ZM509.889,295.644c3.963,0,6.234-2.113,6.234-5.228v-.107c0-3.485-2.431-5.284-6.394-5.284h-8.084v10.619h8.243Z" fill="#3c3c3c"></path>
          <path d="M554.973,277.415h7.504l15.851,37.255h-8.506l-3.382-8.295h-15.64l-3.382,8.295h-8.295l15.851-37.255ZM563.534,299.185l-4.914-11.995-4.917,11.995h9.831Z" fill="#3c3c3c"></path>
          <path d="M594.621,277.681h28.164v7.396h-20.028v7.874h17.649v7.4h-17.649v14.319h-8.136v-36.988Z" fill="#3c3c3c"></path>
          <path d="M648.474,285.184h-11.252v-7.504h30.647v7.504h-11.255v29.485h-8.14v-29.485Z" fill="#3c3c3c"></path>
          <path d="M685.056,277.681h8.136v36.988h-8.136v-36.988Z" fill="#3c3c3c"></path>
          <path d="M713.016,277.681h7.504l17.331,22.773v-22.773h8.033v36.988h-6.923l-17.915-23.513v23.513h-8.029v-36.988Z" fill="#3c3c3c"></path>
          <path d="M763.702,296.281v-.107c0-10.515,8.192-19.129,19.391-19.129,6.66,0,10.674,1.798,14.53,5.073l-5.124,6.183c-2.853-2.375-5.391-3.752-9.668-3.752-5.92,0-10.623,5.232-10.623,11.522v.104c0,6.764,4.651,11.733,11.203,11.733,2.96,0,5.602-.74,7.663-2.22v-5.284h-8.192v-7.03h16.065v16.065c-3.807,3.223-9.039,5.864-15.803,5.864-11.518,0-19.443-8.084-19.443-19.021Z" fill="#3c3c3c"></path>
          <path d="M843.78,277.681h16.909c4.703,0,8.347,1.321,10.778,3.752,2.061,2.061,3.171,4.965,3.171,8.454v.104c0,5.972-3.223,9.723-7.925,11.466l9.035,13.213h-9.513l-7.925-11.836h-6.394v11.836h-8.136v-36.988ZM860.16,295.644c3.963,0,6.234-2.113,6.234-5.228v-.107c0-3.485-2.431-5.284-6.394-5.284h-8.084v10.619h8.243Z" fill="#3c3c3c"></path>
          <path d="M892.564,277.681h27.898v7.237h-19.813v7.504h17.434v7.241h-17.434v7.766h20.08v7.241h-28.164v-36.988Z" fill="#3c3c3c"></path>
          <path d="M947.16,285.184h-11.252v-7.504h30.647v7.504h-11.255v29.485h-8.14v-29.485Z" fill="#3c3c3c"></path>
          <path d="M991.293,277.415h7.504l15.851,37.255h-8.506l-3.382-8.295h-15.64l-3.382,8.295h-8.295l15.851-37.255ZM999.855,299.185l-4.914-11.995-4.917,11.995h9.831Z" fill="#3c3c3c"></path>
          <path d="M1031.312,277.681h8.136v36.988h-8.136v-36.988Z" fill="#3c3c3c"></path>
          <path d="M1059.273,277.681h8.136v29.589h18.441v7.4h-26.577v-36.988Z" fill="#3c3c3c"></path>
          <path d="M1127.348,296.281v-.107c0-10.515,7.925-19.129,19.288-19.129,6.974,0,11.148,2.327,14.582,5.709l-5.176,5.972c-2.856-2.59-5.761-4.177-9.461-4.177-6.234,0-10.726,5.18-10.726,11.522v.104c0,6.342,4.388,11.625,10.726,11.625,4.229,0,6.819-1.691,9.723-4.333l5.18,5.232c-3.807,4.07-8.033,6.604-15.166,6.604-10.885,0-18.97-8.403-18.97-19.021Z" fill="#3c3c3c"></path>
          <path d="M1175.869,296.281v-.107c0-10.515,8.295-19.129,19.71-19.129s19.602,8.51,19.602,19.025v.104c0,10.515-8.295,19.129-19.71,19.129s-19.602-8.506-19.602-19.021ZM1206.675,296.281v-.107c0-6.338-4.651-11.625-11.203-11.625s-11.096,5.18-11.096,11.522v.104c0,6.342,4.651,11.625,11.203,11.625s11.096-5.176,11.096-11.518Z" fill="#3c3c3c"></path>
          <path d="M1233.004,277.681h7.504l17.331,22.773v-22.773h8.033v36.988h-6.923l-17.915-23.513v23.513h-8.029v-36.988Z" fill="#3c3c3c"></path>
          <path d="M1282.161,277.681h8.983l9.668,26.051,9.668-26.051h8.773l-14.952,37.251h-7.189l-14.952-37.251Z" fill="#3c3c3c"></path>
          <path d="M1335.544,277.681h27.898v7.237h-19.813v7.504h17.434v7.241h-17.434v7.766h20.08v7.241h-28.164v-36.988Z" fill="#3c3c3c"></path>
          <path d="M1381.531,277.681h16.909c4.703,0,8.347,1.321,10.778,3.752,2.061,2.061,3.171,4.965,3.171,8.454v.104c0,5.972-3.223,9.723-7.925,11.466l9.035,13.213h-9.513l-7.925-11.836h-6.394v11.836h-8.136v-36.988ZM1397.911,295.644c3.963,0,6.234-2.113,6.234-5.228v-.107c0-3.485-2.431-5.284-6.394-5.284h-8.084v10.619h8.243Z" fill="#3c3c3c"></path>
          <path d="M1427.777,309.279l4.81-5.761c3.326,2.749,6.815,4.492,11.041,4.492,3.33,0,5.339-1.321,5.339-3.485v-.107c0-2.061-1.269-3.115-7.452-4.703-7.448-1.902-12.258-3.963-12.258-11.307v-.107c0-6.708,5.391-11.148,12.946-11.148,5.391,0,9.986,1.691,13.738,4.703l-4.225,6.131c-3.278-2.272-6.501-3.648-9.62-3.648s-4.754,1.428-4.754,3.223v.107c0,2.431,1.584,3.223,7.981,4.862,7.5,1.954,11.729,4.651,11.729,11.096v.107c0,7.344-5.602,11.466-13.579,11.466-5.602,0-11.255-1.957-15.695-5.92Z" fill="#3c3c3c"></path>
          <path d="M1475.084,277.681h8.136v36.988h-8.136v-36.988Z" fill="#3c3c3c"></path>
          <path d="M1501.406,296.281v-.107c0-10.515,8.295-19.129,19.71-19.129s19.602,8.51,19.602,19.025v.104c0,10.515-8.295,19.129-19.71,19.129s-19.602-8.506-19.602-19.021ZM1532.212,296.281v-.107c0-6.338-4.651-11.625-11.203-11.625s-11.096,5.18-11.096,11.522v.104c0,6.342,4.651,11.625,11.203,11.625s11.096-5.176,11.096-11.518Z" fill="#3c3c3c"></path>
          <path d="M1558.541,277.681h7.504l17.331,22.773v-22.773h8.033v36.988h-6.923l-17.915-23.513v23.513h-8.029v-36.988Z" fill="#3c3c3c"></path>
        </g>
        <g>
          <path d="M394.411,80.233h49.607c29.478,0,47.811,16.715,47.811,42.055v.361c0,28.041-22.468,42.957-50.329,42.957h-24.982v40.443h-22.107v-125.817ZM442.22,145.655c16.718,0,27.142-9.347,27.142-22.465v-.361c0-14.917-10.604-22.465-27.142-22.465h-25.701v45.291h25.701Z" fill="#3c3c3c"></path>
          <path d="M514.469,80.233h56.079c15.816,0,28.218,4.673,36.308,12.58,6.649,7.01,10.424,16.177,10.424,27.142v.361c0,20.667-12.222,33.069-30.017,38.103l33.971,47.631h-26.062l-30.916-43.86h-27.68v43.86h-22.107v-125.817ZM568.93,142.6c15.819,0,25.882-8.087,25.882-21.028v-.361c0-13.66-9.524-20.847-26.062-20.847h-32.173v42.236h32.353Z" fill="#3c3c3c"></path>
          <path d="M639.285,143.499v-.358c0-35.228,27.322-65.068,65.964-65.068s65.606,29.298,65.606,64.707v.361c0,35.228-27.322,65.062-65.964,65.062s-65.606-29.295-65.606-64.704ZM747.668,143.499v-.358c0-24.444-17.614-44.756-42.777-44.756-24.985,0-42.419,19.951-42.419,44.395v.361c0,24.444,17.614,44.753,42.777,44.753,24.985,0,42.419-19.951,42.419-44.395Z" fill="#3c3c3c"></path>
          <path d="M1372.825,143.499v-.358c0-35.228,27.322-65.068,65.964-65.068s65.606,29.298,65.606,64.707v.361c0,35.228-27.322,65.062-65.964,65.062s-65.606-29.295-65.606-64.704ZM1481.208,143.499v-.358c0-24.444-17.614-44.756-42.777-44.756-24.985,0-42.419,19.951-42.419,44.395v.361c0,24.444,17.614,44.753,42.777,44.753,24.985,0,42.419-19.951,42.419-44.395Z" fill="#3c3c3c"></path>
          <path d="M796.642,80.233h46.912c39.541,0,66.863,27.139,66.863,62.547v.361c0,35.409-27.322,62.908-66.863,62.908h-46.912v-125.817ZM843.554,185.918c26.423,0,43.676-17.795,43.676-42.419v-.358c0-24.624-17.253-42.777-43.676-42.777h-24.805v85.554h24.805Z" fill="#3c3c3c"></path>
          <path d="M935.213,152.666v-72.433h22.107v71.534c0,23.548,11.864,35.95,31.815,35.95,19.59,0,31.635-11.864,31.635-35.051v-72.433h22.107v71.353c0,37.568-21.211,56.44-54.103,56.44-32.531,0-53.561-18.871-53.561-55.36Z" fill="#3c3c3c"></path>
          <path d="M1067.67,143.499v-.358c0-35.77,26.781-65.068,64.887-65.068,23.006,0,37.204,8.09,49.249,19.593l-14.201,16.357c-10.066-9.347-20.85-15.638-35.228-15.638-23.906,0-41.52,19.951-41.52,44.395v.361c0,24.624,17.614,44.753,41.52,44.753,15.277,0,25.524-6.288,36.128-16.357l14.198,14.381c-13.118,13.479-27.499,22.285-51.044,22.285-36.666,0-63.988-28.576-63.988-64.704Z" fill="#3c3c3c"></path>
          <path d="M1236.796,100.722h-39.902v-20.489h102.092v20.489h-39.902v105.328h-22.288v-105.328Z" fill="#3c3c3c"></path>
          <path d="M1323.603,80.233h22.107v125.817h-22.107v-125.817Z" fill="#3c3c3c"></path>
          <path d="M1529.646,80.233h20.489l67.401,86.991v-86.991h21.749v125.817h-18.513l-69.38-89.512v89.512h-21.746v-125.817Z" fill="#3c3c3c"></path>
        </g>
      </g>
    </g>
  </g>
</svg>