<?xml version="1.0"?>
<svg id="a" data-name="Layer 2" xmlns="http://www.w3.org/2000/svg" width="1586.928" height="302.412" viewBox="0 0 1586.928 302.412">
  <g id="b" data-name="Layer 1">
    <g>
      <g>
        <path d="M61.035,278.164v-.137c0-13.405,10.103-24.385,24.588-24.385,8.891,0,14.211,2.967,18.588,7.278l-6.599,7.613c-3.641-3.302-7.344-5.325-12.06-5.325-7.947,0-13.673,6.603-13.673,14.687v.132c0,8.084,5.594,14.82,13.673,14.82,5.391,0,8.693-2.155,12.395-5.523l6.603,6.669c-4.853,5.188-10.24,8.419-19.333,8.419-13.876,0-24.182-10.711-24.182-24.248Z" fill="#3c3c3c"></path>
        <path d="M126.326,254.453h21.555c5.995,0,10.641,1.684,13.739,4.783,2.627,2.627,4.042,6.33,4.042,10.777v.132c0,7.613-4.108,12.395-10.103,14.617l11.518,16.843h-12.126l-10.103-15.088h-8.15v15.088h-10.372v-47.152ZM147.207,277.352c5.051,0,7.947-2.693,7.947-6.665v-.137c0-4.443-3.099-6.735-8.15-6.735h-10.306v13.537h10.509Z" fill="#3c3c3c"></path>
        <path d="M204.678,254.114h9.565l20.206,47.491h-10.843l-4.311-10.575h-19.937l-4.311,10.575h-10.575l20.206-47.491ZM215.593,281.866l-6.264-15.291-6.268,15.291h12.532Z" fill="#3c3c3c"></path>
        <path d="M255.221,254.453h35.903v9.428h-25.531v10.037h22.498v9.433h-22.498v18.253h-10.372v-47.152Z" fill="#3c3c3c"></path>
        <path d="M323.871,264.019h-14.343v-9.565h39.067v9.565h-14.348v37.586h-10.376v-37.586Z" fill="#3c3c3c"></path>
        <path d="M370.504,254.453h10.372v47.152h-10.372v-47.152Z" fill="#3c3c3c"></path>
        <path d="M406.147,254.453h9.565l22.092,29.031v-29.031h10.24v47.152h-8.825l-22.838-29.974v29.974h-10.235v-47.152Z" fill="#3c3c3c"></path>
        <path d="M470.76,278.164v-.137c0-13.405,10.443-24.385,24.72-24.385,8.49,0,13.607,2.292,18.522,6.466l-6.532,7.881c-3.636-3.028-6.872-4.783-12.324-4.783-7.547,0-13.541,6.669-13.541,14.687v.132c0,8.622,5.929,14.956,14.282,14.956,3.773,0,7.141-.943,9.768-2.83v-6.735h-10.443v-8.962h20.479v20.479c-4.853,4.108-11.523,7.476-20.145,7.476-14.683,0-24.786-10.306-24.786-24.248Z" fill="#3c3c3c"></path>
        <path d="M572.841,254.453h21.555c5.995,0,10.641,1.684,13.739,4.783,2.627,2.627,4.042,6.33,4.042,10.777v.132c0,7.613-4.108,12.395-10.103,14.617l11.518,16.843h-12.126l-10.103-15.088h-8.15v15.088h-10.372v-47.152ZM593.721,277.352c5.051,0,7.947-2.693,7.947-6.665v-.137c0-4.443-3.099-6.735-8.15-6.735h-10.306v13.537h10.509Z" fill="#3c3c3c"></path>
        <path d="M635.029,254.453h35.563v9.226h-25.257v9.565h22.225v9.23h-22.225v9.9h25.597v9.23h-35.903v-47.152Z" fill="#3c3c3c"></path>
        <path d="M704.627,264.019h-14.343v-9.565h39.067v9.565h-14.348v37.586h-10.376v-37.586Z" fill="#3c3c3c"></path>
        <path d="M760.886,254.114h9.565l20.206,47.491h-10.843l-4.311-10.575h-19.937l-4.311,10.575h-10.575l20.206-47.491ZM771.801,281.866l-6.264-15.291-6.268,15.291h12.532Z" fill="#3c3c3c"></path>
        <path d="M811.901,254.453h10.372v47.152h-10.372v-47.152Z" fill="#3c3c3c"></path>
        <path d="M847.544,254.453h10.372v37.719h23.507v9.433h-33.879v-47.152Z" fill="#3c3c3c"></path>
        <path d="M934.325,278.164v-.137c0-13.405,10.103-24.385,24.588-24.385,8.891,0,14.211,2.967,18.588,7.278l-6.599,7.613c-3.641-3.302-7.344-5.325-12.06-5.325-7.947,0-13.673,6.603-13.673,14.687v.132c0,8.084,5.594,14.82,13.673,14.82,5.391,0,8.693-2.155,12.395-5.523l6.603,6.669c-4.853,5.188-10.24,8.419-19.333,8.419-13.876,0-24.182-10.711-24.182-24.248Z" fill="#3c3c3c"></path>
        <path d="M996.178,278.164v-.137c0-13.405,10.575-24.385,25.125-24.385s24.988,10.848,24.988,24.253v.132c0,13.405-10.575,24.385-25.125,24.385s-24.988-10.843-24.988-24.248ZM1035.448,278.164v-.137c0-8.08-5.929-14.82-14.282-14.82s-14.145,6.603-14.145,14.687v.132c0,8.084,5.929,14.82,14.282,14.82s14.145-6.599,14.145-14.683Z" fill="#3c3c3c"></path>
        <path d="M1069.011,254.453h9.565l22.092,29.031v-29.031h10.24v47.152h-8.825l-22.838-29.974v29.974h-10.235v-47.152Z" fill="#3c3c3c"></path>
        <path d="M1131.676,254.453h11.452l12.324,33.209,12.324-33.209h11.183l-19.06,47.487h-9.164l-19.06-47.487Z" fill="#3c3c3c"></path>
        <path d="M1199.727,254.453h35.563v9.226h-25.257v9.565h22.225v9.23h-22.225v9.9h25.597v9.23h-35.903v-47.152Z" fill="#3c3c3c"></path>
        <path d="M1258.349,254.453h21.555c5.995,0,10.641,1.684,13.739,4.783,2.627,2.627,4.042,6.33,4.042,10.777v.132c0,7.613-4.108,12.395-10.103,14.617l11.518,16.843h-12.126l-10.103-15.088h-8.15v15.088h-10.372v-47.152ZM1279.23,277.352c5.051,0,7.947-2.693,7.947-6.665v-.137c0-4.443-3.099-6.735-8.15-6.735h-10.306v13.537h10.509Z" fill="#3c3c3c"></path>
        <path d="M1317.302,294.733l6.132-7.344c4.24,3.504,8.688,5.726,14.074,5.726,4.245,0,6.806-1.684,6.806-4.443v-.137c0-2.627-1.618-3.971-9.499-5.995-9.494-2.424-15.626-5.051-15.626-14.414v-.137c0-8.551,6.872-14.211,16.503-14.211,6.872,0,12.73,2.155,17.513,5.995l-5.386,7.815c-4.179-2.896-8.287-4.651-12.263-4.651s-6.061,1.821-6.061,4.108v.137c0,3.099,2.019,4.108,10.174,6.198,9.561,2.49,14.952,5.929,14.952,14.145v.137c0,9.362-7.141,14.617-17.31,14.617-7.141,0-14.348-2.495-20.008-7.547Z" fill="#3c3c3c"></path>
        <path d="M1377.608,254.453h10.372v47.152h-10.372v-47.152Z" fill="#3c3c3c"></path>
        <path d="M1411.162,278.164v-.137c0-13.405,10.575-24.385,25.125-24.385s24.988,10.848,24.988,24.253v.132c0,13.405-10.575,24.385-25.125,24.385s-24.988-10.843-24.988-24.248ZM1450.432,278.164v-.137c0-8.08-5.929-14.82-14.282-14.82s-14.145,6.603-14.145,14.687v.132c0,8.084,5.929,14.82,14.282,14.82s14.145-6.599,14.145-14.683Z" fill="#3c3c3c"></path>
        <path d="M1483.996,254.453h9.565l22.092,29.031v-29.031h10.24v47.152h-8.825l-22.838-29.974v29.974h-10.235v-47.152Z" fill="#3c3c3c"></path>
      </g>
      <g>
        <path d="M0,2.753h63.237c37.578,0,60.948,21.308,60.948,53.611v.46c0,35.746-28.642,54.761-64.157,54.761h-31.847v51.556H0V2.753ZM60.945,86.151c21.312,0,34.599-11.915,34.599-28.638v-.46c0-19.015-13.518-28.638-34.599-28.638H28.182v57.736h32.763Z" fill="#3c3c3c"></path>
        <path d="M153.045,2.753h71.487c20.161,0,35.972,5.958,46.285,16.036,8.476,8.936,13.288,20.622,13.288,34.599v.46c0,26.345-15.58,42.155-38.264,48.573l43.306,60.718h-33.223l-39.411-55.911h-35.286v55.911h-28.182V2.753ZM222.47,82.256c20.165,0,32.993-10.309,32.993-26.805v-.46c0-17.413-12.141-26.575-33.223-26.575h-41.013v53.841h41.243Z" fill="#3c3c3c"></path>
        <path d="M312.157,83.403v-.456c0-44.908,34.829-82.946,84.089-82.946s83.633,37.348,83.633,82.486v.46c0,44.908-34.829,82.938-84.089,82.938s-83.633-37.344-83.633-82.482ZM450.32,83.403v-.456c0-31.16-22.454-57.053-54.531-57.053-31.851,0-54.075,25.433-54.075,56.593v.46c0,31.16,22.454,57.049,54.531,57.049,31.851,0,54.075-25.433,54.075-56.593Z" fill="#3c3c3c"></path>
        <path d="M1247.251,83.403v-.456c0-44.908,34.829-82.946,84.089-82.946s83.633,37.348,83.633,82.486v.46c0,44.908-34.829,82.938-84.089,82.938s-83.633-37.344-83.633-82.482ZM1385.414,83.403v-.456c0-31.16-22.454-57.053-54.531-57.053-31.851,0-54.075,25.433-54.075,56.593v.46c0,31.16,22.454,57.049,54.531,57.049,31.851,0,54.075-25.433,54.075-56.593Z" fill="#3c3c3c"></path>
        <path d="M512.751,2.753h59.802c50.406,0,85.235,34.595,85.235,79.734v.46c0,45.138-34.829,80.194-85.235,80.194h-59.802V2.753ZM572.553,137.477c33.683,0,55.677-22.684,55.677-54.075v-.456c0-31.39-21.994-54.531-55.677-54.531h-31.621v109.062h31.621Z" fill="#3c3c3c"></path>
        <path d="M689.397,95.088V2.753h28.182v91.189c0,30.018,15.124,45.828,40.557,45.828,24.973,0,40.327-15.124,40.327-44.682V2.753h28.182v90.959c0,47.891-27.039,71.947-68.969,71.947-41.469,0-68.278-24.057-68.278-70.571Z" fill="#3c3c3c"></path>
        <path d="M858.249,83.403v-.456c0-45.598,34.139-82.946,82.716-82.946,29.328,0,47.427,10.313,62.781,24.977l-18.103,20.852c-12.831-11.915-26.579-19.935-44.908-19.935-30.474,0-52.928,25.433-52.928,56.593v.46c0,31.39,22.454,57.049,52.928,57.049,19.475,0,32.537-8.016,46.054-20.852l18.099,18.333c-16.723,17.183-35.055,28.408-65.07,28.408-46.741,0-81.57-36.428-81.57-82.482Z" fill="#3c3c3c"></path>
        <path d="M1073.845,28.872h-50.866V2.753h130.143v26.119h-50.866v134.268h-28.412V28.872Z" fill="#3c3c3c"></path>
        <path d="M1184.505,2.753h28.182v160.387h-28.182V2.753Z" fill="#3c3c3c"></path>
        <path d="M1447.162,2.753h26.119l85.921,110.894V2.753h27.725v160.387h-23.6l-88.444-114.107v114.107h-27.722V2.753Z" fill="#3c3c3c"></path>
      </g>
    </g>
  </g>
</svg>